<?xml version="1.0" encoding="utf-8"?>
<!-- Svg Vector Icons : http://www.onlinewebfonts.com/icon -->
<!DOCTYPE svg PUBLIC "-//W3C//DTD SVG 1.1//EN" "http://www.w3.org/Graphics/SVG/1.1/DTD/svg11.dtd">
<svg version="1.1" xmlns="http://www.w3.org/2000/svg" xmlns:xlink="http://www.w3.org/1999/xlink" x="0px" y="0px" viewBox="0 0 1000 1000" enable-background="new 0 0 1000 1000" xml:space="preserve">
<metadata> Svg Vector Icons : http://www.onlinewebfonts.com/icon </metadata>
<g><g transform="translate(0.000000,511.000000) scale(0.100000,-0.100000)"><path d="M923.6,4503.3c-269.2-39.1-565.9-241.5-692.4-473.9C118.4,3820.1,100,3693.6,100,3109.2v-536h4900h4900v536c0,584.3-18.4,710.9-131.1,920.2c-80.5,144.9-282.9,331.3-437.1,398c-66.7,29.9-186.3,64.4-264.6,78.2C8890.1,4533.2,1119.1,4533.2,923.6,4503.3z M1751.7,4008.7c186.3-75.9,303.7-253,303.7-453.2c0-294.5-204.7-499.2-494.6-499.2c-446.3,0-660.2,524.5-345.1,842C1360.7,4040.9,1570,4084.7,1751.7,4008.7z M3189.5,4020.2c110.4-29.9,234.7-140.3,296.8-257.6c36.8-73.6,43.7-124.2,36.8-246.2c-9.2-181.7-69-287.6-213.9-384.2c-126.5-85.1-354.3-101.2-485.4-34.5c-317.5,163.3-384.2,552.1-135.7,800.6C2826.1,4036.3,2991.7,4075.4,3189.5,4020.2z"/><path d="M100-677.3c0-2953.8-2.3-2866.4,117.3-3103.3c126.5-248.4,421-455.5,710.8-501.5c209.3-32.2,7941.2-32.2,8141.4,2.3c391.1,62.1,694.7,340.5,795.9,722.4c29.9,119.6,34.5,490,34.5,2880.2v2744.5H5000H100V-677.3z M3824.5-454.2l908.7-908.7l-908.7-908.7c-496.9-499.2-915.6-906.4-929.4-906.4c-13.8,0-179.4,156.4-368.1,345.1l-345.1,345.1l563.6,563.6l563.6,563.6L2745.5-797l-563.6,563.6L2527,111.7c188.6,188.6,354.3,345.1,365.8,345.1S3323,47.3,3824.5-454.2z M7944.6-2338.3v-494.6H6713.9H5483.1v494.6v494.6h1230.8h1230.7V-2338.3z"/></g></g>
</svg>