<svg width="1000" height="1000" xmlns="http://www.w3.org/2000/svg">
 <metadata>Svg Vector Icons : http://www.onlinewebfonts.com/icon</metadata>

 <g>
  <title>background</title>
  <rect fill="none" id="canvas_background" height="402" width="582" y="-1" x="-1"/>
 </g>
 <g>
  <title>Layer 1</title>
  <g fill="white" id="svg_1">
   <g id="svg_2" transform="translate(0,511) scale(0.10000000149011612,-0.10000000149011612) ">
    <path id="svg_3" d="m923.6,4503.3c-269.2,-39.1 -565.9,-241.5 -692.4,-473.9c-112.8,-209.3 -131.2,-335.8 -131.2,-920.2l0,-536l4900,0l4900,0l0,536c0,584.3 -18.4,710.9 -131.1,920.2c-80.5,144.9 -282.9,331.3 -437.1,398c-66.7,29.9 -186.3,64.4 -264.6,78.2c-177.1,27.6 -7948.1,27.6 -8143.6,-2.3zm828.1,-494.6c186.3,-75.9 303.7,-253 303.7,-453.2c0,-294.5 -204.7,-499.2 -494.6,-499.2c-446.3,0 -660.2,524.5 -345.1,842c145,142.6 354.3,186.4 536,110.4zm1437.8,11.5c110.4,-29.9 234.7,-140.3 296.8,-257.6c36.8,-73.6 43.7,-124.2 36.8,-246.2c-9.2,-181.7 -69,-287.6 -213.9,-384.2c-126.5,-85.1 -354.3,-101.2 -485.4,-34.5c-317.5,163.3 -384.2,552.1 -135.7,800.6c138,138 303.6,177.1 501.4,121.9z"/>
    <path id="svg_4" d="m100,-677.3c0,-2953.8 -2.3,-2866.4 117.3,-3103.3c126.5,-248.4 421,-455.5 710.8,-501.5c209.3,-32.2 7941.2,-32.2 8141.4,2.3c391.1,62.1 694.7,340.5 795.9,722.4c29.9,119.6 34.5,490 34.5,2880.2l0,2744.5l-4899.9,0l-4900,0l0,-2744.6zm3724.5,223.1l908.7,-908.7l-908.7,-908.7c-496.9,-499.2 -915.6,-906.4 -929.4,-906.4c-13.8,0 -179.4,156.4 -368.1,345.1l-345.1,345.1l563.6,563.6l563.6,563.6l-563.6,563.6l-563.6,563.6l345.1,345.1c188.6,188.6 354.3,345.1 365.8,345.1s430.2,-409.5 931.7,-911zm4120.1,-1884.1l0,-494.6l-1230.7,0l-1230.8,0l0,494.6l0,494.6l1230.8,0l1230.7,0l0,-494.6z"/>
   </g>
  </g>
 </g>
</svg>